<svg width="187" height="85" viewBox="0 0 187 85" fill="none" xmlns="http://www.w3.org/2000/svg">
<path fill-rule="evenodd" clip-rule="evenodd" d="M26.6917 13.3459C26.6917 20.7166 20.7166 26.6917 13.3459 26.6917C5.97514 26.6917 0 20.7166 0 13.3459C0 5.97514 5.97514 0 13.3459 0C20.7166 0 26.6917 5.97514 26.6917 13.3459ZM186.842 13.3459C186.842 20.7166 180.867 26.6917 173.496 26.6917C166.125 26.6917 160.15 20.7166 160.15 13.3459C160.15 5.97514 166.125 0 173.496 0C180.867 0 186.842 5.97514 186.842 13.3459ZM61.3834 36.701C61.3834 32.2827 57.8017 28.701 53.3834 28.701C48.9651 28.701 45.3834 32.2827 45.3834 36.701C45.3834 63.2314 66.8906 84.7386 93.421 84.7386C119.951 84.7386 141.459 63.2314 141.459 36.701C141.459 32.2827 137.877 28.701 133.459 28.701C129.04 28.701 125.459 32.2827 125.459 36.701C125.459 54.3949 111.115 68.7386 93.421 68.7386C75.7271 68.7386 61.3834 54.3949 61.3834 36.701Z" fill="#C4C9D4"/>
</svg>
